<?xml version="1.0" encoding="utf-8"?>
<!-- Generator: Adobe Illustrator 21.1.0, SVG Export Plug-In . SVG Version: 6.00 Build 0)  -->
<svg version="1.1" id="Layer_1" xmlns="http://www.w3.org/2000/svg" xmlns:xlink="http://www.w3.org/1999/xlink" x="0px" y="0px"
	 viewBox="0 0 46.6 49.6" style="enable-background:new 0 0 46.6 49.6;" xml:space="preserve">
<style type="text/css">
	.st0{fill:#E5E5E5;}
	.st1{fill:none;}
</style>
<path class="st0" d="M5.8,12.7v27.2c0,2.1,1.7,3.9,3.9,3.9h27.2c2.1,0,3.9-1.7,3.9-3.9V12.7c0-2.1-1.7-3.9-3.9-3.9H9.7
	C7.6,8.8,5.8,10.6,5.8,12.7z M29.1,20.5c0,3.2-2.6,5.8-5.8,5.8s-5.8-2.6-5.8-5.8s2.6-5.8,5.8-5.8S29.1,17.3,29.1,20.5z M11.7,36
	c0-3.9,7.8-6,11.7-6S35,32.1,35,36V38H11.7V36z"/>
<path class="st1" d="M0,3h46.6v46.6H0V3z"/>
</svg>
