<?xml version="1.0" encoding="utf-8"?>
<!-- Generator: Adobe Illustrator 21.1.0, SVG Export Plug-In . SVG Version: 6.00 Build 0)  -->
<svg version="1.1" id="Layer_1" xmlns="http://www.w3.org/2000/svg" xmlns:xlink="http://www.w3.org/1999/xlink" x="0px" y="0px"
	 viewBox="0 0 32 32" style="enable-background:new 0 0 32 32;" xml:space="preserve">
<style type="text/css">
	.st0{fill:none;}
	.st1{fill:#E5E5E5;}
</style>
<path class="st0" d="M0,0h32v32H0V0z"/>
<path class="st1" d="M25.6,17.3c0-0.4,0.1-0.8,0.1-1.2s0-0.8-0.1-1.2l2.7-2.1c0.2-0.2,0.3-0.5,0.2-0.8l-2.6-4.4
	c-0.2-0.3-0.5-0.4-0.8-0.3l-3.2,1.3c-0.7-0.5-1.4-0.9-2.2-1.2l-0.5-3.4c0-0.3-0.3-0.5-0.6-0.5h-5.1c-0.3,0-0.6,0.2-0.6,0.5l-0.5,3.4
	c-0.8,0.3-1.5,0.8-2.2,1.2L7,7.1C6.7,7,6.4,7.1,6.2,7.4l-2.6,4.4c-0.2,0.3-0.1,0.6,0.2,0.8l2.7,2.1c-0.1,0.4-0.1,0.8-0.1,1.2
	c0,0.4,0,0.8,0.1,1.2l-2.7,2.1c-0.2,0.2-0.3,0.5-0.2,0.8l2.6,4.4C6.4,24.9,6.7,25,7,24.9l3.2-1.3c0.7,0.5,1.4,0.9,2.2,1.2l0.5,3.4
	c0.1,0.3,0.3,0.5,0.6,0.5h5.1c0.3,0,0.6-0.2,0.6-0.5l0.5-3.4c0.8-0.3,1.5-0.8,2.2-1.2l3.2,1.3c0.3,0.1,0.6,0,0.8-0.3l2.6-4.4
	c0.2-0.3,0.1-0.6-0.2-0.8C28.2,19.4,25.6,17.3,25.6,17.3z M16,20.8c-2.6,0-4.8-2.2-4.8-4.8s2.2-4.8,4.8-4.8s4.8,2.2,4.8,4.8
	S18.7,20.8,16,20.8z"/>
</svg>
