<svg id="Layer_1" data-name="Layer 1" xmlns="http://www.w3.org/2000/svg" viewBox="0 0 48 48"><defs><style>.cls-1{fill:#58595c;}.cls-2{fill:#fff;}</style></defs><title>social-media-YOUTUBE</title><path class="cls-1" d="M306.39,43.21a24,24,0,1,1-24-24A24,24,0,0,1,306.39,43.21Z" transform="translate(-258.39 -19.21)"/><path class="cls-2" d="M290.41,48.4a.62.62,0,0,0-.52.21,1.22,1.22,0,0,0-.16.7v.78h1.35v-.78a1.22,1.22,0,0,0-.16-.7A.61.61,0,0,0,290.41,48.4Z" transform="translate(-258.39 -19.21)"/><path class="cls-2" d="M285.18,48.37a.71.71,0,0,0-.32.07,1.34,1.34,0,0,0-.32.24v4.84a1.53,1.53,0,0,0,.36.27.81.81,0,0,0,.37.09.51.51,0,0,0,.41-.17.83.83,0,0,0,.13-.53v-4a.93.93,0,0,0-.16-.6A.59.59,0,0,0,285.18,48.37Z" transform="translate(-258.39 -19.21)"/><path class="cls-2" d="M291.91,42.21h-19a5.8,5.8,0,0,0-5.48,5.89v4.5a5.54,5.54,0,0,0,5.48,5.61h19a5.55,5.55,0,0,0,5.48-5.61V48.1A5.81,5.81,0,0,0,291.91,42.21Zm-15,3.79H275.1v9h-1.71V46h-1.77V44.47h5.25Zm5,9h-1.52v-.85a3,3,0,0,1-.88.72,1.76,1.76,0,0,1-.88.25.94.94,0,0,1-.79-.35,1.66,1.66,0,0,1-.27-1V47.23h1.52v6a.66.66,0,0,0,.09.39.37.37,0,0,0,.32.13.85.85,0,0,0,.42-.17,2,2,0,0,0,.47-.41v-5.9h1.52Zm5.5-1.6a1.93,1.93,0,0,1-.35,1.26,1.23,1.23,0,0,1-1,.44,1.71,1.71,0,0,1-.8-.17,1.94,1.94,0,0,1-.65-.52V55H283V44.47h1.53v3.39a2.42,2.42,0,0,1,.65-.54,1.55,1.55,0,0,1,.7-.18,1.3,1.3,0,0,1,1.1.49,2.32,2.32,0,0,1,.38,1.45Zm5.27-2.09h-2.91v1.46a1.71,1.71,0,0,0,.15.85.56.56,0,0,0,.52.24.65.65,0,0,0,.53-.2,1.82,1.82,0,0,0,.15-.89v-.35h1.56v.4a2.51,2.51,0,0,1-.58,1.8,2.21,2.21,0,0,1-1.7.6,2.06,2.06,0,0,1-1.6-.64,2.53,2.53,0,0,1-.59-1.76V49.32a2.2,2.2,0,0,1,.65-1.65,2.24,2.24,0,0,1,1.66-.63,2.09,2.09,0,0,1,1.6.59,2.36,2.36,0,0,1,.56,1.69Z" transform="translate(-258.39 -19.21)"/><polygon class="cls-2" points="14.68 9 16.97 16 16.97 20.59 18.9 20.59 18.9 15.78 21.14 9 19.18 9 17.99 13.63 17.87 13.63 16.62 9 14.68 9"/><path class="cls-2" d="M280.35,31.62a2,2,0,0,0-.69,1.58v4.43a2.33,2.33,0,0,0,.67,1.74,2.49,2.49,0,0,0,1.8.64,2.57,2.57,0,0,0,1.83-.62,2.26,2.26,0,0,0,.66-1.72V33.25a2.1,2.1,0,0,0-.67-1.6A2.53,2.53,0,0,0,282.2,31,2.77,2.77,0,0,0,280.35,31.62Zm2.53,1.52V37.8a.75.75,0,0,1-.2.54.79.79,0,0,1-.56.19.68.68,0,0,1-.52-.19.77.77,0,0,1-.18-.54V33.14a.63.63,0,0,1,.19-.46.78.78,0,0,1,.51-.17.86.86,0,0,1,.55.17A.57.57,0,0,1,282.88,33.14Z" transform="translate(-258.39 -19.21)"/><path class="cls-2" d="M290.88,39.8V31.25h-1.71v6.49a2.26,2.26,0,0,1-.52.46,1,1,0,0,1-.48.18.42.42,0,0,1-.35-.14.73.73,0,0,1-.11-.44V31.25H286v7.14a1.86,1.86,0,0,0,.3,1.15,1.07,1.07,0,0,0,.89.38,2.11,2.11,0,0,0,1-.27,3.56,3.56,0,0,0,1-.8v.95Z" transform="translate(-258.39 -19.21)"/></svg>