<svg id="Layer_1" data-name="Layer 1" xmlns="http://www.w3.org/2000/svg" viewBox="0 0 48 48"><defs><style>.cls-1{fill:#58595c;}.cls-2{fill:#fff;}</style></defs><title>social-media-HI</title><circle class="cls-1" cx="24" cy="24" r="24"/><path class="cls-2" d="M197.73,38.29c0,1.41,0,2.82,0,4.24s0,3,0,4.58a10.94,10.94,0,0,0,9.34,11c1.5,0,7.39.14,8.46.14s4.11-.28,4.11-3.34a3.32,3.32,0,0,0-3.62-3.66h-5.85c-4.16,0-4.83-2.32-4.83-4,0-.8.05-2.37.1-4h9.78c1.46,0,4.25-.35,4.25-3s-1.29-4-3-4H205.62c0-3.82-.27-8-4-8a3.21,3.21,0,0,0-3.35,2.2c-.7,2.07-.52,4.49-.51,6.65C197.73,37.46,197.73,37.88,197.73,38.29Z" transform="translate(-184.69 -19.21)"/></svg>