<svg id="Layer_1" data-name="Layer 1" xmlns="http://www.w3.org/2000/svg" viewBox="0 0 48 48"><defs><style>.cls-1{fill:#58595c;}.cls-2{fill:#fff;}</style></defs><title>social-media-TWITTER</title><path class="cls-1" d="M89.54,43.21a24,24,0,1,1-24-24A24,24,0,0,1,89.54,43.21Z" transform="translate(-41.53 -19.21)"/><path class="cls-2" d="M79.71,31.65a12.54,12.54,0,0,1-3.91,1.47,6.18,6.18,0,0,0-4.5-1.91,6.11,6.11,0,0,0-6.15,6,6.37,6.37,0,0,0,.16,1.39,17.59,17.59,0,0,1-12.69-6.34,6,6,0,0,0,1.91,8.09,6.23,6.23,0,0,1-2.79-.75v.07a6.08,6.08,0,0,0,4.94,5.94,6.11,6.11,0,0,1-2.78.11A6.15,6.15,0,0,0,59.65,50,12.51,12.51,0,0,1,52,52.57a11.84,11.84,0,0,1-1.47-.09A17.64,17.64,0,0,0,60,55.21,17.25,17.25,0,0,0,77.48,38c0-.26,0-.53,0-.79a12.38,12.38,0,0,0,3.08-3.13A12.68,12.68,0,0,1,77,35,6.12,6.12,0,0,0,79.71,31.65Z" transform="translate(-41.53 -19.21)"/></svg>